# xmcd
#
# Track frame offsets:
#	182
#	8257
#	15907
#	23057
#	30457
#	37732
#	46507
#	54032
#	61732
#	69145
#	78082
#	86082
#
# Disc length: 1241 seconds
#
# Revision: 1
# Processed by: cddbd v1.5.1PL0 Copyright (c) Steve Scherf et al.
# Submitted via: EasyCDDAExtractor 7.1.0.1
#
DISCID=6204d70c
DTITLE=Various Artist - Quattro Espressi
DYEAR=2001
DGENRE=Blues
TTITLE0=Gigi D´Alessio - Il Cammino Dell´Eta
TTITLE1=Gigi D´Alessio - Bum Bum
TTITLE2=Gigi D´Alessio - Mon Amour
TTITLE3=Giorgia - Senza Ali
TTITLE4=Giorgia - Save The World
TTITLE5=Giorgia - Di Sole D´Azzurro
TTITLE6=Paolo Meneguzzi - Ed Io Non Ci Sto Piu
TTITLE7=Paolo Meneguzzi - Mi Sei Mancata
TTITLE8=Paolo Meneguzzi - Ieri Non Ritorna Piu
TTITLE9=Pino Daniele - Tempo Di Cambiare
TTITLE10=Pino Daniele - Mareluna
TTITLE11=Pino Daniele - Gente Di Frontiera
EXTD=
EXTT0=
EXTT1=
EXTT2=
EXTT3=
EXTT4=
EXTT5=
EXTT6=
EXTT7=
EXTT8=
EXTT9=
EXTT10=
EXTT11=
PLAYORDER=
